<!--suppress ALL -->
<svg
  xmlns="http://www.w3.org/2000/svg"
  xmlns:xlink="http://www.w3.org/1999/xlink"
  width="1024"
  height="1024"
  viewBox="0 0 1024 1024"
  fill="none"
>
  <path fill="#FFFFFF" d="M0 1024L1024 1024L1024 0L0 0L0 1024Z"></path>
  <rect x="0" y="0" width="1024" height="1024" rx="128" fill="#184E85"></rect>
  <path
    d="M346.5 166C170.792 166 122.997 443.987 112 465C174.497 363.486 238.497 277.49 323.5 277.49C481.497 277.49 471.997 623 687 623C781.997 623 883.997 511 913 320C878.997 372.985 821.997 511 714.5 511C567.997 511 573.997 166 346.5 166Z"
    fill="#FFFFFF"
  >
  </path>
  <path
    d="M504.496 187.5C811.496 187.5 811.496 187.5 811.496 187.5L811.496 313.5C811.496 313.5 811.496 313.5 594.496 313.5C568.997 257.485 534.497 210.985 504.496 187.5Z"
    fill="#FFFFFF"
  >
  </path>
  <path
    d="M436.52 449.232C436.52 858.502 436.52 858.502 436.52 858.502C436.52 858.502 436.51 858.767 587.52 858.502L587.52 638.002C509.007 598.985 476.512 530.485 436.52 449.232Z"
    fill="#FFFFFF"
  >
  </path>
</svg>
